<?xml version="1.0" standalone="no"?>
<svg xmlns="http://www.w3.org/2000/svg" version="1.1"
 width="655.005987pt" height="655.025263pt" viewBox="0 0 655.005987 655.025263"
 preserveAspectRatio="xMidYMid meet">
<g transform="translate(60,60)">
<g transform="translate(0.005987,535.000000) scale(0.100000,-0.100000)"
fill="#000000" stroke="none">
<path d="M1800 5327 c-158 -96 -368 -280 -477 -417 -107 -135 -289 -463 -376
-675 -25 -60 -75 -213 -112 -340 -37 -126 -72 -236 -77 -242 -8 -10 -97 -13
-384 -13 l-374 0 0 -155 0 -155 343 0 c189 0 346 -2 349 -5 3 -3 -24 -121 -58
-263 -84 -342 -270 -1161 -389 -1717 -53 -247 -130 -596 -171 -775 -71 -309
-74 -331 -74 -448 l0 -122 357 2 356 3 78 200 c115 298 246 759 388 1365 108
466 252 1120 312 1420 34 173 67 321 72 328 8 9 89 12 371 10 l361 -3 3 -51
c2 -43 -11 -91 -89 -310 -218 -619 -325 -876 -397 -956 -23 -26 -63 -53 -107
-73 -38 -18 -78 -42 -89 -53 -17 -20 -17 -24 -3 -45 l15 -23 296 1 c265 0 297
2 313 17 30 30 5 62 -71 88 -88 31 -122 77 -119 160 1 59 34 191 82 331 46
135 252 648 263 655 17 11 26 -15 53 -160 14 -78 64 -323 110 -546 46 -223 86
-425 90 -450 8 -47 38 -100 58 -100 7 0 24 15 38 33 38 47 575 811 589 837 6
12 71 106 145 208 126 178 179 242 190 230 3 -2 -3 -38 -14 -79 -10 -41 -31
-141 -46 -224 -15 -82 -51 -271 -80 -419 -71 -360 -102 -421 -238 -476 -66
-27 -80 -48 -54 -85 14 -18 30 -19 372 -20 337 -2 358 -1 381 17 46 37 23 67
-72 93 -66 18 -91 41 -112 104 -20 57 -14 106 42 381 30 146 78 384 106 530
81 422 105 486 205 549 35 23 85 44 119 51 64 13 99 40 94 73 -3 22 -4 22
-227 22 -191 0 -228 -2 -251 -16 -15 -10 -175 -223 -356 -474 -542 -754 -605
-840 -616 -840 -12 0 -44 136 -192 823 -53 243 -103 458 -111 477 l-14 35
-484 0 c-266 0 -486 2 -489 5 -9 10 121 522 196 772 78 261 153 437 256 607
107 178 269 278 394 245 52 -14 63 -23 71 -59 5 -22 -5 -51 -43 -127 -65 -130
-76 -182 -57 -273 18 -87 87 -195 155 -244 128 -92 381 -58 484 64 37 45 75
128 87 195 13 69 -2 222 -28 283 -26 64 -84 155 -127 200 l-40 42 -571 -1
c-565 -1 -570 -1 -605 -22z"/>
<path d="M5125 2563 c-126 -10 -400 -115 -547 -211 -146 -95 -333 -279 -429
-423 -161 -243 -231 -445 -231 -670 0 -141 18 -219 75 -314 44 -73 71 -100
174 -170 128 -88 237 -124 401 -132 145 -7 233 5 375 53 118 40 205 94 325
202 l82 74 0 124 0 123 -107 -110 c-95 -98 -118 -116 -202 -157 -86 -43 -102
-47 -179 -51 -172 -7 -292 66 -322 196 -16 71 -15 210 2 278 l13 49 160 36
c88 20 196 47 240 59 97 28 318 113 363 141 l32 20 0 445 0 445 -87 -2 c-49
-1 -110 -3 -138 -5z m127 -143 c57 -16 68 -40 68 -145 0 -114 -37 -223 -112
-338 -50 -76 -80 -104 -207 -195 -105 -76 -382 -195 -404 -173 -24 24 71 269
192 496 150 281 304 399 463 355z"/>
</g>
</g>
<rect x="13.000" y="13.000" width="629.005987" height="629.025263"
 fill="none" stroke="#000000" stroke-width="26"/>
</svg>
