<?xml version="1.0" encoding="UTF-8" standalone="no"?>
<!-- Created with Inkscape (http://www.inkscape.org/) -->

<svg
   version="1.1"
   id="svg2"
   width="682.66669"
   height="566"
   viewBox="0 0 682.66669 566"
   sodipodi:docname="logo-oicat.svg"
   inkscape:version="1.4.2 (2aeb623e1d, 2025-05-12)"
   inkscape:export-filename="C:\Users\Ralu\Desktop\pantalla-catalana1.png"
   inkscape:export-xdpi="96.709999"
   inkscape:export-ydpi="96.709999"
   xmlns:inkscape="http://www.inkscape.org/namespaces/inkscape"
   xmlns:sodipodi="http://sodipodi.sourceforge.net/DTD/sodipodi-0.dtd"
   xmlns="http://www.w3.org/2000/svg"
   xmlns:svg="http://www.w3.org/2000/svg"
   xmlns:rdf="http://www.w3.org/1999/02/22-rdf-syntax-ns#"
   xmlns:cc="http://creativecommons.org/ns#"
   xmlns:dc="http://purl.org/dc/elements/1.1/">
  <metadata
     id="metadata8">
    <rdf:RDF>
      <cc:Work
         rdf:about="">
        <dc:format>image/svg+xml</dc:format>
        <dc:type
           rdf:resource="http://purl.org/dc/dcmitype/StillImage" />
        <dc:title />
      </cc:Work>
    </rdf:RDF>
  </metadata>
  <defs
     id="defs6" />
  <sodipodi:namedview
     pagecolor="#ffffff"
     bordercolor="#666666"
     borderopacity="1"
     objecttolerance="10"
     gridtolerance="10"
     guidetolerance="10"
     inkscape:pageopacity="0"
     inkscape:pageshadow="2"
     inkscape:window-width="1854"
     inkscape:window-height="1131"
     id="namedview4"
     showgrid="false"
     inkscape:snap-bbox="true"
     inkscape:zoom="1.2890625"
     inkscape:cx="277.72121"
     inkscape:cy="247.07879"
     inkscape:window-x="0"
     inkscape:window-y="0"
     inkscape:window-maximized="1"
     inkscape:current-layer="layer1"
     showguides="false"
     inkscape:showpageshadow="2"
     inkscape:pagecheckerboard="0"
     inkscape:deskcolor="#d1d1d1" />
  <g
     inkscape:groupmode="layer"
     id="layer1"
     inkscape:label="pantalla"
     style="display:inline;opacity:1">
    <path
       style="opacity:1;fill:#000000;fill-opacity:1;stroke-width:0.998691"
       d="M 40.691406,0 C 18.25597,0 0.1953125,18.062611 0.1953125,40.498047 V 451.78711 c 0,22.43544 18.0606575,40.49805 40.4960935,40.49805 H 641.97461 c 22.43544,0 40.49805,-18.06261 40.49805,-40.49805 V 40.498047 C 682.47266,18.062611 664.41005,0 641.97461,0 Z m 5.009766,21.761719 H 636.82227 c 13.40858,0 24.20312,10.794544 24.20312,24.203125 V 445.61133 c 0,13.40858 -10.79454,24.20312 -24.20312,24.20312 H 45.701172 c -13.408581,0 -24.203125,-10.79454 -24.203125,-24.20312 V 45.964844 c 0,-13.408581 10.794544,-24.203125 24.203125,-24.203125 z"
       id="rect3719"
       inkscape:export-xdpi="96.709999"
       inkscape:export-ydpi="96.709999"
       inkscape:connector-curvature="0" />
    <path
       style="opacity:1;fill:#000000;fill-opacity:1"
       d="m 60.123047,44.1875 c -9.631864,0 -17.386719,7.752902 -17.386719,17.384766 V 367.5918 c 0,9.63186 7.754855,17.38672 17.386719,17.38672 H 622.68359 c 9.63187,0 17.38672,-7.75486 17.38672,-17.38672 V 61.572266 c 0,-9.631864 -7.75485,-17.384766 -17.38672,-17.384766 z M 73.177734,66.697266 H 607.97656 c 5.24087,0 9.46094,4.220073 9.46094,9.460937 V 355.13672 c 0,5.24086 -4.22007,9.46094 -9.46094,9.46094 H 73.177734 c -5.240864,0 -9.458984,-4.22008 -9.458984,-9.46094 V 76.158203 c 0,-5.240864 4.21812,-9.460937 9.458984,-9.460937 z"
       id="rect4542"
       inkscape:connector-curvature="0"
       sodipodi:nodetypes="ssssssssssssssssss" />
    <path
       style="opacity:1;fill:#ffffff;fill-opacity:1"
       d="m 73.177734,66.697266 c -5.240864,0 -9.458984,4.220073 -9.458984,9.460937 V 355.13672 c 0,5.24086 4.21812,9.46094 9.458984,9.46094 H 607.97656 c 5.24087,0 9.46094,-4.22008 9.46094,-9.46094 V 76.158203 c 0,-5.240864 -4.22007,-9.460937 -9.46094,-9.460937 z"
       id="rect4544"
       inkscape:connector-curvature="0"
       sodipodi:nodetypes="sssssssss" />
    <rect
       style="opacity:1;fill:#000000;fill-opacity:1"
       id="rect4593"
       width="256.82758"
       height="22.243837"
       x="212.66576"
       y="533.19257"
       ry="9.7157278" />
    <rect
       style="opacity:1;fill:#000000;fill-opacity:1;stroke-width:1.0247"
       id="rect4595"
       width="21.476871"
       height="65.197647"
       x="298.44537"
       y="481.54581"
       ry="10.227081" />
    <rect
       style="opacity:1;fill:#000000;fill-opacity:1"
       id="rect4597"
       width="0.76703113"
       height="11.249789"
       x="316.59845"
       y="499.44315"
       ry="0.38351557" />
    <rect
       style="display:inline;opacity:1;fill:#000000;fill-opacity:1;stroke-width:1.0247"
       id="rect4595-5"
       width="21.476871"
       height="65.197647"
       x="362.36462"
       y="477.83847"
       ry="10.227081" />
    <circle
       style="opacity:1;fill:#000000;fill-opacity:1;stroke-width:1.08108"
       id="path4614"
       cx="341.40363"
       cy="427.46158"
       r="21.694916" />
    <path
       style="opacity:1;fill:#000000;fill-opacity:1;stroke-width:1.01723"
       d="M 97.482422,66.697266 V 364.59766 h 75.169918 l 1e-5,-297.900394 z"
       id="rect4549"
       inkscape:connector-curvature="0"
       sodipodi:nodetypes="ccccc" />
    <path
       style="display:inline;opacity:1;fill:#000000;fill-opacity:1;stroke-width:1.01707"
       d="M 233.54688,66.697266 V 364.59766 H 308.7168 V 66.697266 Z"
       id="rect4549-1"
       inkscape:connector-curvature="0"
       sodipodi:nodetypes="ccccc" />
    <path
       style="display:inline;opacity:1;fill:#000000;fill-opacity:1;stroke-width:1.01712"
       d="M 372.5918,66.697266 V 364.59766 h 75.16992 V 66.697266 Z"
       id="rect4549-1-3"
       inkscape:connector-curvature="0"
       sodipodi:nodetypes="ccccc" />
    <path
       style="display:inline;opacity:1;fill:#000000;fill-opacity:1;stroke-width:1.01723"
       d="M 512.8125,66.697266 V 364.59766 h 75.16992 V 66.697266 Z"
       id="rect4549-1-9"
       inkscape:connector-curvature="0"
       sodipodi:nodetypes="ccccc" />

  </g>
  <g
     inkscape:groupmode="layer"
     id="layer2"
     inkscape:label="oicat"
     style="display:inline" />
</svg>
